<svg display="none" xmlns="http://www.w3.org/2000/svg">

    <symbol id="left" viewBox="0 0 446.25 446.25">

        <path d="M216.75,376.125v-306L0,223.125L216.75,376.125z M229.5,223.125l216.75,153v-306L229.5,223.125z" />

    </symbol>
    <symbol id="repeat" viewBox="0 0 456.559 456.559">
        <g>
            <path d="M351.79,151.874c-3.434,0-6.875-1.308-9.498-3.931c-5.238-5.245-5.238-13.75,0-18.995l53.02-53.006l-53.02-53.013
		c-5.238-5.245-5.238-13.75,0-18.995c5.245-5.245,13.75-5.245,18.995,0l62.511,62.511c2.518,2.518,3.931,5.938,3.931,9.498
		c0,3.56-1.413,6.98-3.931,9.498l-62.511,62.504C358.665,150.566,355.224,151.874,351.79,151.874z" />
            <path d="M42.958,227.428c-7.413,0-13.428-6.015-13.428-13.428v-80.932c0-38.907,31.647-70.554,70.554-70.554h314.218
		c7.413,0,13.428,6.015,13.428,13.428c0,7.413-6.015,13.428-13.428,13.428H100.083c-24.094,0-43.697,19.604-43.697,43.697V214
		C56.386,221.414,50.371,227.428,42.958,227.428z" />
            <path d="M357.162,394.049H42.258c-7.413,0-13.428-6.015-13.428-13.428s6.015-13.428,13.428-13.428h314.903
		c24.101,0,43.704-19.604,43.704-43.697v-82.534c0-7.413,6.015-13.428,13.428-13.428c7.413,0,13.428,6.015,13.428,13.428v82.534
		C427.722,362.402,396.068,394.049,357.162,394.049z" />
            <path d="M104.769,456.559c-3.434,0-6.875-1.308-9.498-3.931l-62.511-62.511c-2.518-2.518-3.931-5.938-3.931-9.498
		s1.413-6.98,3.931-9.498l62.511-62.504c5.245-5.245,13.75-5.245,18.995,0c5.238,5.245,5.238,13.75,0,18.995l-53.02,53.006
		l53.02,53.013c5.238,5.245,5.238,13.75,0,18.995C111.644,455.252,108.203,456.559,104.769,456.559z" />
        </g>
        <g>
        </g>
        <g>
        </g>
        <g>
        </g>
        <g>
        </g>
        <g>
        </g>
        <g>
        </g>
        <g>
        </g>
        <g>
        </g>
        <g>
        </g>
        <g>
        </g>
        <g>
        </g>
        <g>
        </g>
        <g>
        </g>
        <g>
        </g>
        <g>
        </g>
    </symbol>
    <symbol id="right" viewBox="0 0 446.25 446.25">
        <g>
            <g>
                <path d="M0,376.125l216.75-153L0,70.125V376.125z M229.5,70.125v306l216.75-153L229.5,70.125z" />
            </g>
        </g>
        <g>
        </g>
        <g>
        </g>
        <g>
        </g>
        <g>
        </g>
        <g>
        </g>
        <g>
        </g>
        <g>
        </g>
        <g>
        </g>
        <g>
        </g>
        <g>
        </g>
        <g>
        </g>
        <g>
        </g>
        <g>
        </g>
        <g>
        </g>
        <g>
        </g>
    </symbol>
    <symbol id="volume" viewBox="0 0 286.374 286.374">
        <g>
            <path style="fill-rule:evenodd;clip-rule:evenodd;" d="M233.636,26.767l-33.372,28.5c25.659,21.07,42.006,52.616,42.006,87.92
		c0,35.305-16.347,66.851-42.006,87.921l33.372,28.499c32.324-28.869,52.738-70.268,52.738-116.421
		C286.374,97.034,265.96,55.635,233.636,26.767z M177.737,74.513l-34.69,29.64c15.14,6.818,27.19,21.681,27.19,39.034
		s-12.05,32.216-27.19,39.034l34.69,29.64c21.294-15.717,36.051-40.586,36.051-68.674C213.788,115.099,199.03,90.23,177.737,74.513z
		 M108.672,48.317L44.746,98.441H17.898C4.671,98.441,0,103.268,0,116.34v53.695c0,13.072,4.951,17.898,17.898,17.898h26.848
		l63.926,50.068c7.668,4.948,16.558,6.505,16.558-7.365V55.683C125.23,41.813,116.34,43.37,108.672,48.317z" />
        </g>
        <g>
        </g>
        <g>
        </g>
        <g>
        </g>
        <g>
        </g>
        <g>
        </g>
        <g>
        </g>
        <g>
        </g>
        <g>
        </g>
        <g>
        </g>
        <g>
        </g>
        <g>
        </g>
        <g>
        </g>
        <g>
        </g>
        <g>
        </g>
        <g>
        </g>
    </symbol>
    <symbol id="stop" viewBox="0 0 232.679 232.679">
        <g>
            <path style="fill-rule:evenodd;clip-rule:evenodd;"
                d="M214.781,0H17.898C8.013,0,0,8.014,0,17.898v196.883
		c0,9.885,8.013,17.898,17.898,17.898h196.883c9.886,0,17.898-8.013,17.898-17.898V17.898C232.679,8.014,224.666,0,214.781,0z" />
        </g>
        <g>
        </g>
        <g>
        </g>
        <g>
        </g>
        <g>
        </g>
        <g>
        </g>
        <g>
        </g>
        <g>
        </g>
        <g>
        </g>
        <g>
        </g>
        <g>
        </g>
        <g>
        </g>
        <g>
        </g>
        <g>
        </g>
        <g>
        </g>
        <g>
        </g>
    </symbol>
    <symbol id="play" viewBox="0 0 415.346 415.346">
        <g>
            <path d="M41.712,415.346c-11.763,0-21.3-9.537-21.3-21.3V21.299C20.412,9.536,29.949,0,41.712,0l346.122,191.697
			c0,0,15.975,15.975,0,31.951C371.859,239.622,41.712,415.346,41.712,415.346z" />
        </g>
        <g>
        </g>
        <g>
        </g>
        <g>
        </g>
        <g>
        </g>
        <g>
        </g>
        <g>
        </g>
        <g>
        </g>
        <g>
        </g>
        <g>
        </g>
        <g>
        </g>
        <g>
        </g>
        <g>
        </g>
        <g>
        </g>
        <g>
        </g>
        <g>
        </g>
        <g>
        </g>
        <g>
        </g>
        <g>
        </g>
        <g>
        </g>
        <g>
        </g>
        <g>
        </g>
        <g>
        </g>
        <g>
        </g>
        <g>
        </g>
        <g>
        </g>
        <g>
        </g>
        <g>
        </g>
        <g>
        </g>
        <g>
        </g>
        <g>
        </g>
        <g>
        </g>

    </symbol>
    <symbol id="pause" viewBox="0 0 70 70">
        <g>
            <g>
                <g>
                    <path style="fill:#030104;" d="M52.5,0c-4.972,0-9,1.529-9,6.5v57c0,4.971,4.028,6.5,9,6.5c4.971,0,9-1.529,9-6.5v-57
				C61.5,1.529,57.471,0,52.5,0z" />
                    <path style="fill:#030104;" d="M17.5,0c-4.972,0-9,1.529-9,6.5v57c0,4.971,4.028,6.5,9,6.5c4.971,0,9-1.529,9-6.5v-57
				C26.5,1.529,22.471,0,17.5,0z" />
                </g>
            </g>
        </g>
        <g>
        </g>
        <g>
        </g>
        <g>
        </g>
        <g>
        </g>
        <g>
        </g>
        <g>
        </g>
        <g>
        </g>
        <g>
        </g>
        <g>
        </g>
        <g>
        </g>
        <g>
        </g>
        <g>
        </g>
        <g>
        </g>
        <g>
        </g>
        <g>
        </g>


    </symbol>
    <symbol id="mute-volume" viewBox="0 0 196.78 196.78">
        <g>
            <path style="fill-rule:evenodd;clip-rule:evenodd;" d="M144.447,3.547L80.521,53.672H53.674c-13.227,0-17.898,4.826-17.898,17.898
		v26.4v27.295c0,13.072,4.951,17.898,17.898,17.898h26.848l63.926,50.068c7.668,4.948,16.558,6.505,16.558-7.365V10.914
		C161.005-2.956,152.115-1.4,144.447,3.547z" />
        </g>
        <g>
        </g>
        <g>
        </g>
        <g>
        </g>
        <g>
        </g>
        <g>
        </g>
        <g>
        </g>
        <g>
        </g>
        <g>
        </g>
        <g>
        </g>
        <g>
        </g>
        <g>
        </g>
        <g>
        </g>
        <g>
        </g>
        <g>
        </g>
        <g>
        </g>
    </symbol>

</svg>